<?xml version="1.0" encoding="UTF-8"?>
<svg version="1.1" xmlns="http://www.w3.org/2000/svg" width="256" height="256">
<path d="M0 0 C1.37001499 -0.00679667 1.37001499 -0.00679667 2.76770705 -0.01373065 C5.82913209 -0.02639404 8.89037967 -0.02475301 11.951828 -0.02310181 C14.14645619 -0.02908585 16.34108226 -0.03589111 18.53570557 -0.04345703 C24.49857763 -0.06113708 30.4613923 -0.06581327 36.42428803 -0.0670886 C41.40190351 -0.06898734 46.3795056 -0.07634461 51.35711592 -0.08343279 C62.43038929 -0.09879156 73.50364002 -0.10477003 84.57692269 -0.10342209 C85.2410809 -0.10334218 85.9052391 -0.10326227 86.58952332 -0.10317993 C87.25449503 -0.10309817 87.91946675 -0.10301641 88.60458913 -0.10293217 C99.37862644 -0.10211947 110.15252388 -0.12125397 120.92652074 -0.14945666 C131.9963304 -0.17820441 143.06606852 -0.19162987 154.13591594 -0.19026911 C160.3479254 -0.18975916 166.55977659 -0.19546077 172.77175331 -0.21662521 C178.61504718 -0.2359897 184.4580315 -0.23614406 190.30133629 -0.22159195 C192.44429857 -0.21950053 194.58728014 -0.22422449 196.73020935 -0.23631287 C199.65928879 -0.25176394 202.58730074 -0.24245771 205.51635742 -0.22705078 C206.36121651 -0.23733791 207.2060756 -0.24762503 208.07653648 -0.25822389 C214.70801814 -0.18132098 219.91487374 1.64947215 224.97209167 6.01351929 C225.64111511 6.85076538 225.64111511 6.85076538 226.32365417 7.70492554 C227.01588074 8.53830444 227.01588074 8.53830444 227.72209167 9.38851929 C231.1321914 14.61227077 231.23808001 19.26996596 231.21607971 25.31877136 C231.22061082 26.23211469 231.22514194 27.14545802 231.22981036 28.08647841 C231.24247375 31.14790345 231.24083272 34.20915103 231.23918152 37.27059937 C231.24516556 39.46522755 231.25197082 41.65985363 231.25953674 43.85447693 C231.2772168 49.81734899 231.28189298 55.78016366 231.28316832 61.7430594 C231.28506705 66.72067487 231.29242432 71.69827696 231.29951251 76.67588729 C231.31487128 87.74916065 231.32084974 98.82241138 231.3195018 109.89569405 C231.31942189 110.55985226 231.31934198 111.22401047 231.31925964 111.90829468 C231.31917788 112.5732664 231.31909612 113.23823811 231.31901188 113.92336049 C231.31819918 124.6973978 231.33733368 135.47129524 231.36553638 146.2452921 C231.39428412 157.31510177 231.40770959 168.38483988 231.40634882 179.4546873 C231.40583887 185.66669676 231.41154048 191.87854795 231.43270493 198.09052467 C231.45206941 203.93381854 231.45222377 209.77680286 231.43767166 215.62010765 C231.43558025 217.76306994 231.44030421 219.9060515 231.45239258 222.04898071 C231.46784365 224.97806015 231.45853742 227.9060721 231.44313049 230.83512878 C231.45341762 231.67998787 231.46370475 232.52484696 231.4743036 233.39530784 C231.39740069 240.0267895 229.56660756 245.2336451 225.20256042 250.29086304 C224.64439636 250.73687866 224.0862323 251.18289429 223.51115417 251.64242554 C222.95556824 252.10390991 222.3999823 252.56539429 221.82756042 253.04086304 C216.60380894 256.45096276 211.94611376 256.55685138 205.89730835 256.53485107 C204.52729336 256.54164774 204.52729336 256.54164774 203.1296013 256.54858172 C200.06817626 256.56124511 197.00692868 256.55960409 193.94548035 256.55795288 C191.75085216 256.56393692 189.55622608 256.57074218 187.36160278 256.57830811 C181.39873072 256.59598816 175.43591605 256.60066434 169.47302032 256.60193968 C164.49540484 256.60383841 159.51780275 256.61119568 154.54019243 256.61828387 C143.46691906 256.63364264 132.39366833 256.63962111 121.32038566 256.63827316 C120.65622745 256.63819325 119.99206925 256.63811334 119.30778503 256.63803101 C118.64281332 256.63794924 117.9778416 256.63786748 117.29271922 256.63778324 C106.51868191 256.63697054 95.74478447 256.65610504 84.97078761 256.68430774 C73.90097795 256.71305548 62.83123983 256.72648095 51.76139241 256.72512019 C45.54938295 256.72461024 39.33753176 256.73031185 33.12555504 256.75147629 C27.28226117 256.77084077 21.43927685 256.77099513 15.59597206 256.75644302 C13.45300978 256.75435161 11.31002821 256.75907557 9.167099 256.77116394 C6.23801956 256.78661501 3.31000761 256.77730878 0.38095093 256.76190186 C-0.46390816 256.77218898 -1.30876725 256.78247611 -2.17922813 256.79307497 C-8.80804128 256.716203 -14.05612621 254.90414396 -19.07478333 250.48617554 C-19.52079895 249.91898804 -19.96681458 249.35180054 -20.42634583 248.76742554 C-20.8878302 248.20023804 -21.34931458 247.63305054 -21.82478333 247.04867554 C-24.05669648 243.80742587 -25.30003016 241.23780916 -25.31140804 237.26805496 C-25.31847363 236.47777696 -25.32553923 235.68749896 -25.33281893 234.87327313 C-25.33040384 234.01102714 -25.32798876 233.14878115 -25.32550049 232.26040649 C-25.33073717 231.33975049 -25.33597385 230.41909448 -25.34136921 229.47053981 C-25.35639881 226.37837732 -25.35707502 223.28637989 -25.35774231 220.19418335 C-25.36536185 217.97999796 -25.373789 215.76581523 -25.38296509 213.55163574 C-25.40493849 207.53086123 -25.41371294 201.51013751 -25.41879153 195.48932743 C-25.42243207 191.7283092 -25.42867058 187.96730434 -25.43579292 184.2062912 C-25.45525157 173.78858901 -25.4717626 163.3708961 -25.47466946 152.95317459 C-25.47485703 152.28664743 -25.4750446 151.62012027 -25.47523785 150.93339531 C-25.4756041 149.58223709 -25.47596779 148.23107886 -25.47632896 146.87992063 C-25.47651177 146.20922303 -25.47669458 145.53852543 -25.47688293 144.84750366 C-25.47715376 143.84022599 -25.47715376 143.84022599 -25.47743005 142.81259927 C-25.48097064 131.93500514 -25.50798595 121.05760911 -25.54538082 110.18008366 C-25.58348583 99.00635576 -25.60238625 87.83270025 -25.60312897 76.65890002 C-25.60392235 70.38758963 -25.61268948 64.11653473 -25.64112663 57.84528351 C-25.66728101 51.94532346 -25.66952675 46.04583119 -25.65347099 40.14583969 C-25.65165437 37.98190924 -25.65836632 35.81795206 -25.6742897 33.65407944 C-25.69472597 30.69629235 -25.68421218 27.74014562 -25.66607666 24.78237915 C-25.67927663 23.92905605 -25.6924766 23.07573294 -25.70607656 22.19655156 C-25.61094425 15.38845909 -23.30425808 10.63187969 -18.57327837 5.73867536 C-12.66646426 0.51370828 -7.53461515 -0.02740439 0 0 Z M20.94865417 66.26742554 C20.20759023 70.22241102 20.26584418 74.12441635 20.30168152 78.13851929 C20.29291992 79.34066071 20.28415833 80.54280212 20.27513123 81.78137207 C20.25691473 85.07090432 20.26115584 88.35942805 20.27702665 91.64894485 C20.28970751 95.09527923 20.27793951 98.54154743 20.27009583 101.98788452 C20.26100552 107.77487236 20.27297052 113.56154089 20.29679871 119.34848022 C20.3240093 126.03397555 20.31519466 132.71870844 20.28766668 139.4041853 C20.26495857 145.1496059 20.26178368 150.8947973 20.27486002 156.6402483 C20.28264539 160.069395 20.28372195 163.4981836 20.26717758 166.92730713 C20.25449403 170.7508414 20.27381516 174.57290705 20.30168152 178.39633179 C20.29156036 179.52999176 20.28143921 180.66365173 20.27101135 181.83166504 C20.33216901 188.09933628 20.33216901 188.09933628 23.29377747 193.50546265 C25.85174603 195.54486959 25.85174603 195.54486959 29.07365417 195.32992554 C32.40249273 194.09970259 33.17407051 193.27999743 34.94865417 190.26742554 C35.38039397 187.64651409 35.38039397 187.64651409 35.28923035 184.76449585 C35.28900375 183.66365662 35.28877716 182.56281738 35.2885437 181.42861938 C35.27305984 180.24620667 35.25757599 179.06379395 35.24162292 177.84555054 C35.23525566 176.02286652 35.23525566 176.02286652 35.22875977 174.1633606 C35.21196294 170.28115714 35.17430756 166.39947218 35.13615417 162.51742554 C35.1211087 159.88592262 35.10742006 157.25441156 35.09513855 154.62289429 C35.06205603 148.17089437 35.01184596 141.719197 34.94865417 135.26742554 C36.22393982 135.2883728 37.49922546 135.30932007 38.81315613 135.3309021 C43.58973253 135.40384821 48.36626069 135.44942227 53.14323425 135.4871521 C55.20223803 135.50714399 57.26118594 135.53434682 59.31999207 135.56918335 C74.41894921 135.81808737 86.89316311 135.67609581 98.57365417 124.82992554 C106.52910308 116.24641488 110.32050766 107.69185839 110.16349792 95.95101929 C109.33979242 85.66218875 104.5467763 77.10573545 96.94865417 70.26742554 C96.20615417 69.58680054 95.46365417 68.90617554 94.69865417 68.20492554 C88.3224552 63.71260353 81.49743264 61.18371902 73.70866394 61.07455444 C72.66400467 61.05849152 71.6193454 61.04242859 70.54302979 61.02587891 C65.78786498 60.98131596 61.03283623 60.94039836 56.2775116 60.91732788 C53.76830287 60.90073753 51.25914198 60.87340763 48.75016785 60.83529663 C45.12988305 60.78061314 41.5107022 60.75866961 37.89006042 60.74398804 C36.76910477 60.72131866 35.64814911 60.69864929 34.4932251 60.67529297 C33.44541367 60.67814301 32.39760223 60.68099304 31.31803894 60.68392944 C30.39966751 60.67584259 29.48129608 60.66775574 28.53509521 60.65942383 C24.54996001 61.59622037 23.27669601 62.88284966 20.94865417 66.26742554 Z M147.13615417 67.45492554 C146.59345886 67.98473022 146.05076355 68.51453491 145.49162292 69.06039429 C140.16836816 76.67467008 140.57655128 84.30235163 140.76115417 93.26742554 C140.77468933 94.51910522 140.78822449 95.77078491 140.8021698 97.06039429 C140.83731632 100.1298567 140.88652192 103.19841063 140.94865417 106.26742554 C140.26375916 106.24277222 139.57886414 106.2181189 138.87321472 106.19271851 C137.97385193 106.1735437 137.07448914 106.1543689 136.14787292 106.13461304 C134.8111554 106.09763306 134.8111554 106.09763306 133.44743347 106.05990601 C130.66007289 106.08846108 130.66007289 106.08846108 127.76115417 108.39242554 C125.68216428 111.14177248 125.68216428 111.14177248 125.88615417 114.39242554 C127.11366741 117.71393194 127.94328444 118.49742367 130.94865417 120.26742554 C133.5374722 120.62777077 133.5374722 120.62777077 136.19865417 120.45492554 C137.09068542 120.42785522 137.98271667 120.40078491 138.90177917 120.37289429 C139.9149823 120.32068726 139.9149823 120.32068726 140.94865417 120.26742554 C140.93199959 121.56621895 140.93199959 121.56621895 140.91500854 122.89125061 C140.81476213 131.05706624 140.73866681 139.2226748 140.68959332 147.38896465 C140.66351556 151.58724435 140.62815195 155.78501499 140.57145691 159.98300171 C140.51707037 164.03548486 140.48721993 168.08747887 140.47426796 172.14029884 C140.46503983 173.68529777 140.44701881 175.23027036 140.42000389 176.77506065 C140.38362179 178.94196468 140.37871213 181.1068563 140.38102722 183.27401733 C140.36992416 184.50645676 140.35882111 185.73889618 140.34738159 187.00868225 C141.11904613 191.19090626 142.6309558 192.68941697 145.94865417 195.26742554 C149.0957572 195.52072338 149.0957572 195.52072338 151.94865417 194.26742554 C154.35992817 191.88812142 154.91891315 190.52615978 155.30941772 187.12893677 C155.30275589 185.89427673 155.29609406 184.6596167 155.28923035 183.38754272 C155.28966843 182.70420868 155.29010651 182.02087463 155.29055786 181.3168335 C155.28847339 179.06569514 155.26515965 176.81530825 155.24162292 174.56430054 C155.23602573 173.00060432 155.23175621 171.43690283 155.22875977 169.87319946 C155.21732065 165.76312667 155.18786174 161.65337333 155.15464783 157.54342651 C155.12392668 153.34730348 155.11025007 149.15112869 155.09513855 144.95492554 C155.06299093 136.72561249 155.01180612 128.49655878 154.94865417 120.26742554 C156.04536438 120.30670166 156.04536438 120.30670166 157.16423035 120.34677124 C160.48798499 120.45092698 163.81139611 120.51581175 167.13615417 120.57992554 C168.8618866 120.64276733 168.8618866 120.64276733 170.6224823 120.70687866 C177.47619308 121.05494277 177.47619308 121.05494277 183.24552917 117.94320679 C185.21780364 115.35648798 185.21780364 115.35648798 185.01115417 112.14242554 C183.77807469 108.80585752 182.98017787 108.03195255 179.94865417 106.26742554 C177.14673093 105.85604006 177.14673093 105.85604006 174.08927917 105.97445679 C172.97424011 105.98412476 171.85920105 105.99379272 170.71037292 106.00375366 C169.55150574 106.02889038 168.39263855 106.0540271 167.19865417 106.07992554 C165.43715027 106.10022827 165.43715027 106.10022827 163.64006042 106.12094116 C160.7424612 106.15627774 157.84578991 106.20561575 154.94865417 106.26742554 C155.00047384 102.01642571 155.09554137 97.76746624 155.19865417 93.51742554 C155.21992371 91.70758179 155.21992371 91.70758179 155.24162292 89.86117554 C155.27384949 88.70101929 155.30607605 87.54086304 155.33927917 86.34555054 C155.36022644 85.27723999 155.38117371 84.20892944 155.40275574 83.10824585 C156.08102103 79.57859696 157.06863955 78.37701827 159.94865417 76.26742554 C162.15934753 75.8008728 162.15934753 75.8008728 164.53849792 75.83383179 C165.83883972 75.81932983 165.83883972 75.81932983 167.16545105 75.80453491 C168.97538797 75.82142592 170.78529262 75.8422425 172.59513855 75.86703491 C177.18719653 75.80908021 179.29300472 75.75834307 183.07365417 72.92758179 C185.23792911 70.38394405 185.23792911 70.38394405 185.01115417 67.14242554 C183.78696957 63.82992602 182.9211624 63.0625286 179.94865417 61.26742554 C177.67298144 60.81161167 177.67298144 60.81161167 175.24552917 60.86898804 C174.34705261 60.86512085 173.44857605 60.86125366 172.52287292 60.85726929 C171.59088074 60.86887085 170.65888855 60.88047241 169.69865417 60.89242554 C168.78213074 60.88082397 167.8656073 60.86922241 166.92131042 60.85726929 C159.49753814 60.88904007 152.57625023 61.88246705 147.13615417 67.45492554 Z " fill="#000000" transform="translate(25.051345825195313,-0.267425537109375)"/>
<path d="M0 0 C6.909375 -0.0825 13.81875 -0.165 20.9375 -0.25 C23.10046631 -0.28641602 25.26343262 -0.32283203 27.49194336 -0.36035156 C29.2329001 -0.3720491 30.97386791 -0.38223839 32.71484375 -0.390625 C33.59724731 -0.41108887 34.47965088 -0.43155273 35.38879395 -0.45263672 C42.64101977 -0.45665736 48.67922854 1.26133372 54.33984375 5.9296875 C59.48861025 12.19884573 61.52581797 17.23223514 61.3046875 25.4140625 C60.41624394 32.9544425 56.84802068 37.74956934 51.1953125 42.58984375 C45.38575993 46.32160261 39.67041007 46.27124806 33.0078125 46.1953125 C32.16855225 46.19329834 31.32929199 46.19128418 30.46459961 46.18920898 C27.35134356 46.1788024 24.23816587 46.15088007 21.125 46.125 C14.15375 46.08375 7.1825 46.0425 0 46 C0 30.82 0 15.64 0 0 Z " fill="#000000" transform="translate(60,75)"/>
</svg>
