<?xml version="1.0" standalone="no"?>
<!DOCTYPE svg PUBLIC "-//W3C//DTD SVG 20010904//EN"
 "http://www.w3.org/TR/2001/REC-SVG-20010904/DTD/svg10.dtd">
<svg version="1.0" xmlns="http://www.w3.org/2000/svg"
 width="512.000000pt" height="512.000000pt" viewBox="0 0 512.000000 512.000000"
 preserveAspectRatio="xMidYMid meet">

<g transform="translate(0.000000,512.000000) scale(0.100000,-0.100000)"
fill="#000000" stroke="none">
<path d="M2184 4268 c3 -24 15 -182 26 -353 11 -170 30 -428 41 -573 11 -145
19 -269 17 -276 -2 -9 -197 116 -525 335 l-522 349 -25 -43 c-63 -110 -326
-588 -326 -593 0 -3 125 -66 278 -141 152 -74 401 -196 552 -270 l275 -135
-558 -279 -559 -280 19 -32 c11 -18 95 -164 187 -324 l168 -293 337 227 c185
124 416 280 514 346 98 66 179 118 182 116 3 -4 -7 -152 -65 -969 -6 -85 -14
-183 -17 -217 l-6 -63 373 0 372 0 -6 108 c-4 59 -15 289 -26 512 -11 223 -23
459 -27 524 -7 134 -14 129 77 61 30 -23 224 -158 430 -300 206 -142 405 -280
441 -306 l67 -48 35 57 c58 96 337 589 337 596 0 6 -777 392 -1017 506 -51 24
-93 47 -93 50 0 4 33 22 73 40 39 19 230 111 422 205 193 94 410 200 483 235
72 35 132 68 132 73 0 9 -290 546 -326 604 -14 22 -19 19 -356 -199 -189 -121
-425 -274 -524 -339 -100 -66 -187 -119 -193 -119 -7 0 -9 18 -6 53 4 40 51
838 67 1150 l3 47 -368 0 -368 0 5 -42z"/>
</g>
</svg>
